<svg width="1166" height="295" viewBox="0 0 1166 295" fill="none" xmlns="http://www.w3.org/2000/svg">
<path d="M189.572 108.047C199.461 97.7532 209.356 87.4529 219.245 77.1588C221.531 74.7799 221.632 74.7232 223.931 77.0862C227.241 80.4794 229.611 84.4315 231.025 89.0095C232.811 94.777 232.522 100.499 230.987 106.225C230.648 107.502 230.06 108.755 229.373 109.889C228.498 111.33 227.207 112.217 225.422 112.498C222.558 112.954 219.677 113.502 217.046 114.824C214.468 116.114 211.759 117.135 209.527 119.114C207.932 120.528 206.077 121.645 204.705 123.321C200.385 128.593 197.504 134.439 196.437 141.291C195.371 148.168 196.732 154.525 199.151 160.805C199.557 161.848 200.204 162.814 200.82 163.762C203.565 168.039 206.867 171.711 211.189 174.555C215.425 177.354 220 179.122 224.918 179.867C227.641 180.285 228.87 181.964 229.759 184.007C232.663 190.657 233.224 197.552 231.083 204.549C230.386 206.827 229.538 209.089 228.074 211.069C227.242 212.206 226.808 213.619 225.713 214.599C224.66 215.535 224.027 215.628 222.91 214.781C222.285 214.311 221.724 213.761 221.158 213.217C200.795 193.655 180.426 174.1 160.068 154.532C156.941 151.528 155.733 147.919 157.137 143.684C157.694 142.021 158.543 140.472 159.813 139.162C169.78 128.836 179.71 118.474 189.647 108.13L189.56 108.048L189.572 108.047Z" fill="#0085C8"/>
<path d="M106.596 102.515C98.8865 95.5833 88.9455 85.7132 78.7795 76.0897C78.0558 75.3945 77.3738 74.6681 76.6323 73.9914C75.8354 73.2733 75.7762 72.4807 76.4819 71.7584C78.5286 69.6898 80.5816 67.6393 83.0623 66.0352C86.3023 63.9501 89.8536 62.8285 93.5786 62.1824C98.2031 61.3799 102.778 61.6568 107.235 63.2569C108.237 63.6137 109.221 64.0374 110.205 64.4126C112.172 65.1631 112.96 66.6084 113.199 68.464C113.626 71.734 114.529 74.8677 115.913 77.8469C117.316 80.8681 118.804 83.8635 121.242 86.241C122.318 87.2871 123.365 88.364 124.459 89.3915C130.605 95.1526 137.959 97.9097 146.314 98.1515C152.262 98.3237 157.919 97.0412 163.113 94.2586C167.074 92.1417 170.372 89.1163 173.353 85.6788C177.677 80.7072 179.746 74.8391 180.922 68.5516C181.232 66.9037 182.15 65.8744 183.522 65.1516C185.919 63.8944 188.421 63.023 191.093 62.4332C194.567 61.6767 198.023 61.4719 201.461 62.14C206.511 63.123 211.327 64.7708 215.239 68.3505C216.684 69.6682 216.686 70.0136 215.304 71.4515C195.343 92.2186 175.381 112.974 155.413 133.735C154.133 135.068 152.908 136.478 151.054 137.071C147.846 138.095 144.78 138.08 142.007 135.879C141.507 135.482 141.037 135.031 140.567 134.591C130.124 124.737 119.68 114.87 106.596 102.515Z" fill="#FF4453"/>
<path d="M104.279 185.653C94.248 196.095 84.2231 206.531 74.1923 216.973C72.1932 219.053 72.1924 219.005 70.023 216.945C60.9948 208.355 59.2803 195.523 63.8025 184.824C64.5969 182.951 65.9995 181.639 68.1223 181.422C71.7649 181.051 75.1241 179.695 78.5029 178.417C79.5412 178.025 80.4645 177.285 81.4205 176.684C85.5431 174.09 89.2109 171.06 91.7627 166.767C93.2588 164.262 94.7004 161.753 95.6606 159.006C98.1214 151.978 98.3212 144.868 96.2069 137.755C94.2343 131.135 90.5997 125.506 85.1889 121.234C80.6604 117.656 75.4862 115.143 69.6785 114.372C66.923 114.005 65.1677 112.806 64.0706 110.232C61.2391 103.558 60.5331 96.8125 62.5277 89.7286C63.4142 86.5789 64.8434 83.7131 66.6037 81.1179C68.8879 77.7435 69.3611 77.5094 72.2318 80.279C92.4862 99.7718 112.764 119.24 133.072 138.677C134.381 139.935 135.494 141.336 136.252 142.896C137.538 145.52 137.647 148.261 136.355 151.057C135.646 152.595 134.677 153.85 133.538 155.035C123.756 165.218 113.975 175.4 104.193 185.583C104.218 185.606 104.242 185.63 104.267 185.654L104.279 185.653Z" fill="#FFBE00"/>
<path d="M185.375 189.783C194.025 198.092 202.841 206.192 211.497 214.496C213.505 216.425 215.667 218.181 217.538 220.252C218.902 221.764 219.008 222.222 217.637 223.687C215.482 225.991 212.993 227.89 210.223 229.425C205.619 231.967 200.612 233.172 195.456 232.938C191.367 232.754 187.265 231.88 183.633 229.687C182.535 229.024 181.921 228.018 181.696 226.744C181.389 224.999 181.093 223.253 180.611 221.529C179.626 218.016 178.15 214.791 176.143 211.711C173.993 208.409 171.166 205.836 168.268 203.337C165.672 201.093 162.464 199.818 159.27 198.58C155.08 196.956 150.71 196.336 146.285 196.589C140.182 196.944 134.457 198.599 129.272 202.081C125.348 204.718 122.086 207.978 119.434 211.79C116.735 215.663 114.863 219.998 114.266 224.726C113.883 227.722 112.237 229.397 109.605 230.542C104.66 232.685 99.5828 233.394 94.2007 232.776C89.906 232.288 86.1219 230.649 82.4037 228.67C81.785 228.337 81.2358 227.845 80.6874 227.39C77.9202 225.076 77.9066 225.004 80.3353 222.475C100.014 201.966 119.699 181.474 139.372 160.959C141.028 159.234 142.869 157.936 145.213 157.203C148.116 156.296 150.507 157.381 152.879 158.72C153.547 159.101 154.081 159.72 154.649 160.266C164.893 170.107 175.131 179.942 185.375 189.783C185.435 189.721 185.396 189.761 185.455 189.7L185.375 189.783Z" fill="#00C269"/>
<path d="M81.9439 129.63C92.2193 139.371 92.1807 155.374 82.8267 165.37C72.7565 176.135 56.6789 176.269 46.4668 166.352C36.1011 156.287 35.9017 140.47 46.2116 129.947C55.4372 120.527 71.6001 119.432 81.9439 129.63Z" fill="#FFBE00"/>
<path d="M212.071 164.452C206.867 159.62 204.626 152.993 204.748 145.661C204.804 142.288 205.463 138.779 207.354 135.694C208.132 134.43 208.678 133.015 209.547 131.803C213.171 126.717 218.032 123.485 224.073 121.935C228.009 120.919 231.933 120.798 235.86 121.62C238.921 122.263 241.785 123.443 244.35 125.241C246.554 126.788 248.574 128.502 250.263 130.672C253.925 135.379 255.734 140.652 255.718 146.61C255.707 150.598 254.666 154.369 252.915 157.911C251.163 161.464 248.773 164.689 245.522 166.945C240.184 170.647 234.196 172.474 227.644 171.868C223.936 171.519 220.534 170.31 217.262 168.487C215.428 167.463 213.88 166.19 212.059 164.464L212.071 164.452Z" fill="#0085C8"/>
<path d="M163.791 45.2736C174.16 54.8407 174.813 71.2471 163.985 82.0025C154.635 91.2801 139.31 91.956 129.073 82.6825C117.355 72.0578 119.277 55.3101 127.614 46.3358C137.309 35.8988 154.793 35.7943 163.791 45.2736Z" fill="#FF4453"/>
<path d="M164.899 211.411C175.042 220.607 175.289 236.424 166.415 246.625C156.958 257.494 140.224 257.987 130.025 248.69C119.08 238.712 119.803 221.884 128.6 212.492C138.333 202.102 155.113 201.486 164.905 211.417L164.899 211.411Z" fill="#00C269"/>
<path fill-rule="evenodd" clip-rule="evenodd" d="M1133.94 143.839L1141.12 140.312C1154.18 133.894 1161.5 120.788 1161.5 104.838V81.853H1135.32V98.927C1135.32 106.919 1133.15 115.126 1127.81 121.404C1122.38 127.789 1114.07 131.711 1102.79 131.711H1080.03V23H1053.85V206.208H1080.03V156.35H1102.79C1114.04 156.35 1122.36 160.19 1127.8 166.511C1133.15 172.729 1135.32 180.883 1135.32 188.877V206.208H1161.5V183.223C1161.5 167.043 1154.2 154.148 1141.07 147.467L1133.94 143.839ZM1146.99 141.582C1159.01 133.817 1165.5 120.373 1165.5 104.838V77.853H1131.32V98.927C1131.32 113.576 1123.35 127.711 1102.79 127.711H1084.03V19H1049.85V210.208H1084.03V160.35H1102.79C1123.35 160.35 1131.32 174.228 1131.32 188.877V210.208H1165.5V183.223C1165.5 167.446 1159.01 154.183 1146.96 146.269C1145.67 145.417 1144.31 144.627 1142.88 143.902C1144.31 143.198 1145.68 142.424 1146.99 141.582Z" fill="#111111"/>
<path fill-rule="evenodd" clip-rule="evenodd" d="M976.541 74.512C940.561 74.512 916.917 99.955 916.917 133.622V210.208H950.841V132.851C950.841 117.945 961.635 107.665 976.541 107.665C998.9 107.665 1001.47 125.398 1001.47 132.851V210.208H1035.39V133.622C1035.39 98.927 1013.55 74.512 976.541 74.512ZM1031.39 206.208V133.622C1031.39 117.115 1026.21 103.4 1016.97 93.8357C1007.75 84.2924 994.135 78.512 976.541 78.512C959.529 78.512 945.68 84.5072 936.087 94.2485C926.481 104.002 920.917 117.74 920.917 133.622V206.208H946.841V132.851C946.841 124.396 949.922 117.04 955.314 111.8C960.695 106.57 968.153 103.665 976.541 103.665C988.981 103.665 996.532 108.709 1000.76 115.305C1004.79 121.604 1005.47 128.798 1005.47 132.851V206.208H1031.39Z" fill="#111111"/>
<path fill-rule="evenodd" clip-rule="evenodd" d="M784.997 179.174C785.406 179.158 785.821 179.137 786.241 179.111V182.544C785.797 181.441 785.383 180.317 784.997 179.174ZM865.561 205.502C866.952 204.571 868.286 203.567 869.561 202.498V217.918C869.561 230.254 863.136 243.361 844.632 243.361C833.067 243.361 824.329 238.478 822.273 228.712H787.064C787.294 230.066 787.571 231.4 787.895 232.712C794.079 257.798 817.034 274.972 844.632 274.972C880.098 274.972 903.485 251.328 903.485 215.605V77.853H869.561V155.21C869.561 170.116 859.024 181.167 843.861 181.167C821.759 181.167 819.189 162.663 819.189 155.21V77.853H785.265V155.21C785.265 189.905 806.853 213.292 839.235 213.292C849.381 213.292 858.258 210.391 865.561 205.502ZM789.265 81.853V155.21C789.265 171.729 794.394 185.22 803.039 194.542C811.659 203.836 824.053 209.292 839.235 209.292C850.357 209.292 859.731 205.522 866.99 199.433L873.561 193.923V217.918C873.561 224.708 871.801 232.056 867.138 237.789C862.364 243.66 854.927 247.361 844.632 247.361C838.327 247.361 832.454 246.035 827.759 243.086C823.863 240.639 820.911 237.149 819.27 232.712H792.025C798.085 255.36 819.08 270.972 844.632 270.972C861.454 270.972 875.091 265.383 884.516 255.869C893.945 246.352 899.485 232.578 899.485 215.605V81.853H873.561V155.21C873.561 172.245 861.312 185.167 843.861 185.167C831.452 185.167 823.976 179.847 819.826 173.073C815.864 166.607 815.189 159.258 815.189 155.21V81.853H789.265Z" fill="#111111"/>
<path fill-rule="evenodd" clip-rule="evenodd" d="M787.889 175.002C788.287 176.403 788.728 177.773 789.212 179.111C789.536 180.007 789.879 180.889 790.241 181.756V174.857L787.889 175.002ZM730.874 23V154.696C730.874 172.106 735.808 185.775 744.805 194.599C753.155 202.787 765.533 207.319 782.241 206.276V183.205C775.239 183.085 769.169 181.419 764.669 177.263C759.269 172.275 757.055 164.557 757.055 154.696V23H730.874ZM782.241 179.205C783.517 179.229 784.85 179.197 786.241 179.111V209.951C747.434 214.063 726.874 190.933 726.874 154.696V19H761.055V154.696C761.055 171.896 768.183 178.943 782.241 179.205Z" fill="#111111"/>
<path d="M701.157 58.461H666.976V39.443C666.976 29.934 674.686 22.481 684.195 22.481C693.447 22.481 701.157 29.934 701.157 39.443V58.461ZM701.157 72.853V205.208H667.233V72.853H701.157Z" fill="#111111"/>
<path d="M657.375 174.111V204.951C618.568 209.063 598.008 185.676 598.008 149.439V39.1859H631.932V72.8529H655.833V102.922H631.932V149.696C631.932 168.2 640.413 175.139 657.375 174.111Z" fill="#111111"/>
<path d="M593.05 160.49C585.34 190.559 561.182 208.292 529.057 208.292C489.222 208.292 460.695 177.452 460.695 139.159C460.695 100.866 489.222 69.512 529.057 69.512C560.925 69.512 585.083 87.502 592.793 117.314H556.556C551.93 108.319 541.393 100.609 529.057 100.609C510.296 100.609 495.133 118.085 495.133 139.416C495.133 160.233 510.296 177.452 529.057 177.452C541.65 177.452 552.444 169.742 556.813 160.49H593.05Z" fill="#111111"/>
<path d="M453.953 139.159V205.208H421.828V191.33C411.805 202.381 397.413 208.035 381.479 208.035C346.527 208.035 318 177.195 318 139.159C318 100.866 346.013 69.512 386.105 69.512C425.94 69.512 453.953 100.866 453.953 139.159ZM420.029 139.416C420.029 118.342 404.866 101.38 386.105 101.38C367.344 101.38 352.181 117.571 352.181 139.416C352.181 160.49 367.344 176.681 386.105 176.681C404.866 176.681 420.029 159.976 420.029 139.416Z" fill="#111111"/>
</svg>
