<svg width="1166" height="295" viewBox="0 0 1166 295" fill="none" xmlns="http://www.w3.org/2000/svg">
<path d="M189.573 108.047C199.462 97.7529 209.356 87.4526 219.245 77.1585C221.531 74.7796 221.632 74.7229 223.931 77.0859C227.241 80.4791 229.611 84.4312 231.025 89.0092C232.811 94.7767 232.522 100.499 230.987 106.224C230.648 107.502 230.06 108.755 229.373 109.889C228.498 111.33 227.208 112.217 225.422 112.498C222.558 112.954 219.677 113.501 217.046 114.823C214.468 116.114 211.759 117.135 209.527 119.113C207.932 120.528 206.077 121.645 204.705 123.32C200.385 128.593 197.504 134.439 196.437 141.291C195.371 148.167 196.732 154.525 199.151 160.805C199.557 161.848 200.204 162.814 200.82 163.762C203.565 168.039 206.867 171.71 211.189 174.555C215.425 177.353 220 179.122 224.918 179.867C227.641 180.285 228.87 181.963 229.76 184.007C232.663 190.657 233.224 197.552 231.083 204.549C230.386 206.826 229.538 209.089 228.075 211.069C227.242 212.206 226.808 213.619 225.713 214.599C224.66 215.535 224.027 215.628 222.91 214.781C222.285 214.311 221.725 213.761 221.158 213.217C200.795 193.655 180.426 174.099 160.068 154.531C156.941 151.527 155.733 147.919 157.137 143.684C157.694 142.02 158.543 140.472 159.813 139.161C169.78 128.835 179.71 118.474 189.647 108.13L189.56 108.047L189.573 108.047Z" fill="#0085C8"/>
<path d="M106.596 102.514C98.8865 95.583 88.9455 85.7129 78.7795 76.0894C78.0558 75.3941 77.3739 74.6678 76.6324 73.9911C75.8354 73.273 75.7762 72.4804 76.482 71.7581C78.5286 69.6895 80.5817 67.639 83.0623 66.0349C86.3023 63.9497 89.8536 62.8282 93.5786 62.1821C98.2031 61.3796 102.778 61.6565 107.235 63.2566C108.237 63.6134 109.221 64.037 110.205 64.4123C112.172 65.1627 112.96 66.6081 113.199 68.4637C113.626 71.7337 114.529 74.8674 115.913 77.8466C117.316 80.8678 118.804 83.8632 121.242 86.2407C122.318 87.2868 123.365 88.3637 124.459 89.3912C130.605 95.1523 137.959 97.9094 146.314 98.1512C152.262 98.3234 157.919 97.0409 163.113 94.2583C167.074 92.1414 170.372 89.116 173.354 85.6785C177.677 80.7069 179.747 74.8388 180.922 68.5513C181.232 66.9034 182.15 65.8741 183.522 65.1513C185.919 63.8941 188.421 63.0227 191.093 62.4329C194.567 61.6764 198.023 61.4716 201.461 62.1397C206.511 63.1227 211.327 64.7705 215.239 68.3502C216.684 69.6679 216.686 70.0133 215.304 71.4512C195.343 92.2183 175.381 112.973 155.413 133.734C154.133 135.067 152.908 136.478 151.054 137.071C147.846 138.095 144.78 138.08 142.007 135.879C141.507 135.482 141.037 135.03 140.567 134.591C130.124 124.736 119.68 114.87 106.596 102.514Z" fill="#FF4453"/>
<path d="M104.279 185.653C94.2481 196.095 84.2232 206.53 74.1923 216.972C72.1933 219.053 72.1924 219.005 70.023 216.945C60.9949 208.355 59.2803 195.523 63.8026 184.824C64.597 182.951 65.9995 181.639 68.1223 181.422C71.7649 181.051 75.1242 179.695 78.503 178.417C79.5412 178.025 80.4645 177.285 81.4205 176.684C85.5432 174.09 89.211 171.059 91.7628 166.767C93.2589 164.262 94.7005 161.752 95.6606 159.006C98.1214 151.978 98.3212 144.868 96.2069 137.755C94.2343 131.134 90.5998 125.506 85.1889 121.234C80.6604 117.655 75.4863 115.143 69.6785 114.372C66.923 114.005 65.1677 112.805 64.0706 110.232C61.2392 103.558 60.5331 96.8122 62.5277 89.7283C63.4142 86.5786 64.8435 83.7128 66.6038 81.1176C68.888 77.7432 69.3611 77.5091 72.2319 80.2787C92.4862 99.7715 112.764 119.24 133.072 138.677C134.381 139.935 135.494 141.336 136.252 142.896C137.538 145.52 137.647 148.26 136.355 151.057C135.646 152.595 134.677 153.849 133.538 155.035C123.756 165.217 113.975 175.4 104.193 185.582C104.218 185.606 104.242 185.63 104.267 185.653L104.279 185.653Z" fill="#FFBE00"/>
<path d="M185.375 189.783C194.025 198.092 202.841 206.192 211.497 214.496C213.505 216.425 215.667 218.181 217.538 220.252C218.902 221.764 219.008 222.222 217.637 223.686C215.482 225.991 212.993 227.89 210.223 229.425C205.619 231.967 200.612 233.172 195.456 232.937C191.367 232.754 187.265 231.879 183.633 229.686C182.535 229.024 181.921 228.018 181.696 226.744C181.389 224.998 181.093 223.253 180.611 221.529C179.626 218.016 178.15 214.791 176.143 211.711C173.993 208.409 171.166 205.836 168.268 203.337C165.672 201.092 162.464 199.818 159.27 198.58C155.08 196.956 150.71 196.336 146.285 196.589C140.182 196.943 134.458 198.599 129.272 202.08C125.348 204.718 122.086 207.978 119.434 211.79C116.735 215.663 114.863 219.998 114.266 224.726C113.883 227.721 112.237 229.397 109.605 230.542C104.66 232.685 99.5829 233.394 94.2007 232.776C89.906 232.287 86.1219 230.649 82.4037 228.67C81.785 228.337 81.2358 227.845 80.6874 227.389C77.9202 225.076 77.9066 225.003 80.3354 222.475C100.014 201.966 119.699 181.474 139.372 160.958C141.028 159.234 142.869 157.936 145.213 157.203C148.116 156.296 150.507 157.38 152.879 158.72C153.547 159.101 154.081 159.72 154.649 160.266C164.893 170.107 175.131 179.942 185.375 189.783C185.435 189.721 185.396 189.761 185.455 189.699L185.375 189.783Z" fill="#00C269"/>
<path d="M81.944 129.63C92.2193 139.37 92.1807 155.374 82.8267 165.369C72.7565 176.135 56.6789 176.268 46.4668 166.352C36.1012 156.287 35.9018 140.47 46.2117 129.946C55.4372 120.527 71.6001 119.432 81.944 129.63Z" fill="#FFBE00"/>
<path d="M212.071 164.452C206.867 159.62 204.626 152.992 204.748 145.66C204.804 142.288 205.463 138.779 207.354 135.693C208.132 134.43 208.678 133.014 209.547 131.803C213.171 126.717 218.032 123.485 224.074 121.934C228.009 120.919 231.933 120.798 235.86 121.62C238.921 122.263 241.785 123.443 244.35 125.241C246.554 126.788 248.575 128.502 250.263 130.672C253.925 135.379 255.734 140.651 255.718 146.609C255.707 150.597 254.666 154.369 252.915 157.91C251.163 161.464 248.773 164.689 245.522 166.944C240.184 170.647 234.196 172.474 227.644 171.868C223.936 171.519 220.534 170.309 217.262 168.487C215.428 167.463 213.88 166.19 212.059 164.464L212.071 164.452Z" fill="#0085C8"/>
<path d="M163.791 45.2734C174.16 54.8405 174.813 71.2469 163.985 82.0022C154.635 91.2799 139.31 91.9557 129.073 82.6822C117.355 72.0576 119.277 55.3099 127.614 46.3355C137.309 35.8985 154.793 35.7941 163.791 45.2734Z" fill="#FF4453"/>
<path d="M164.899 211.411C175.042 220.606 175.289 236.423 166.415 246.624C156.958 257.494 140.224 257.987 130.025 248.689C119.08 238.712 119.803 221.884 128.6 212.492C138.333 202.101 155.113 201.486 164.905 211.417L164.899 211.411Z" fill="#00C269"/>
<path fill-rule="evenodd" clip-rule="evenodd" d="M1133.94 143.839L1141.12 140.311C1154.18 133.894 1161.5 120.787 1161.5 104.837V81.8524H1135.32V98.9265C1135.32 106.918 1133.15 115.126 1127.81 121.403C1122.38 127.789 1114.07 131.71 1102.79 131.71H1080.03V22.9995H1053.85V206.207H1080.03V156.349H1102.79C1114.04 156.349 1122.36 160.189 1127.8 166.51C1133.15 172.729 1135.32 180.882 1135.32 188.876V206.207H1161.5V183.222C1161.5 167.043 1154.2 154.147 1141.07 147.467L1133.94 143.839ZM1146.99 141.582C1159.01 133.816 1165.5 120.373 1165.5 104.837V77.8524H1131.32V98.9265C1131.32 113.575 1123.35 127.71 1102.79 127.71H1084.03V18.9995H1049.85V210.207H1084.03V160.349H1102.79C1123.35 160.349 1131.32 174.227 1131.32 188.876V210.207H1165.5V183.222C1165.5 167.445 1159.01 154.182 1146.96 146.268C1145.67 145.416 1144.31 144.626 1142.88 143.901C1144.31 143.198 1145.68 142.423 1146.99 141.582Z" fill="white"/>
<path fill-rule="evenodd" clip-rule="evenodd" d="M976.541 74.5115C940.561 74.5115 916.917 99.9545 916.917 133.621V210.207H950.841V132.85C950.841 117.944 961.635 107.664 976.541 107.664C998.9 107.664 1001.47 125.397 1001.47 132.85V210.207H1035.39V133.621C1035.39 98.9265 1013.55 74.5115 976.541 74.5115ZM1031.39 206.207V133.621C1031.39 117.114 1026.21 103.399 1016.97 93.8352C1007.75 84.2919 994.135 78.5115 976.541 78.5115C959.529 78.5115 945.68 84.5067 936.087 94.248C926.481 104.001 920.917 117.74 920.917 133.621V206.207H946.841V132.85C946.841 124.396 949.922 117.039 955.314 111.799C960.695 106.57 968.153 103.664 976.541 103.664C988.981 103.664 996.532 108.708 1000.76 115.305C1004.79 121.603 1005.47 128.798 1005.47 132.85V206.207H1031.39Z" fill="white"/>
<path fill-rule="evenodd" clip-rule="evenodd" d="M784.997 179.173C785.406 179.157 785.821 179.136 786.241 179.11V182.543C785.797 181.44 785.383 180.317 784.997 179.173ZM865.561 205.501C866.952 204.57 868.286 203.567 869.561 202.497V217.917C869.561 230.253 863.136 243.36 844.632 243.36C833.067 243.36 824.329 238.477 822.273 228.711H787.064C787.294 230.066 787.571 231.399 787.895 232.711C794.079 257.797 817.034 274.971 844.632 274.971C880.098 274.971 903.485 251.327 903.485 215.604V77.8524H869.561V155.209C869.561 170.115 859.024 181.166 843.861 181.166C821.759 181.166 819.189 162.662 819.189 155.209V77.8524H785.265V155.209C785.265 189.904 806.853 213.291 839.235 213.291C849.381 213.291 858.258 210.39 865.561 205.501ZM789.265 81.8524V155.209C789.265 171.729 794.394 185.219 803.039 194.541C811.659 203.835 824.053 209.291 839.235 209.291C850.357 209.291 859.731 205.521 866.99 199.433L873.561 193.922V217.917C873.561 224.707 871.801 232.056 867.138 237.789C862.364 243.659 854.927 247.36 844.632 247.36C838.327 247.36 832.454 246.034 827.759 243.085C823.863 240.638 820.911 237.149 819.27 232.711H792.025C798.085 255.36 819.08 270.971 844.632 270.971C861.454 270.971 875.091 265.383 884.516 255.869C893.945 246.351 899.485 232.577 899.485 215.604V81.8524H873.561V155.209C873.561 172.245 861.312 185.166 843.861 185.166C831.452 185.166 823.976 179.846 819.826 173.073C815.864 166.607 815.189 159.257 815.189 155.209V81.8524H789.265Z" fill="white"/>
<path fill-rule="evenodd" clip-rule="evenodd" d="M787.889 175.001C788.287 176.403 788.728 177.773 789.212 179.11C789.536 180.007 789.879 180.888 790.241 181.755V174.857L787.889 175.001ZM730.874 22.9995V154.695C730.874 172.106 735.808 185.775 744.805 194.598C753.155 202.787 765.533 207.319 782.241 206.275V183.205C775.239 183.084 769.169 181.418 764.669 177.262C759.269 172.274 757.055 164.557 757.055 154.695V22.9995H730.874ZM782.241 179.204C783.517 179.228 784.85 179.196 786.241 179.11V209.95C747.434 214.062 726.874 190.932 726.874 154.695V18.9995H761.055V154.695C761.055 171.895 768.183 178.943 782.241 179.204Z" fill="white"/>
<path d="M701.157 58.4605H666.976V39.4425C666.976 29.9335 674.686 22.4805 684.195 22.4805C693.447 22.4805 701.157 29.9335 701.157 39.4425V58.4605ZM701.157 72.8525V205.207H667.233V72.8525H701.157Z" fill="white"/>
<path d="M657.375 174.11V204.95C618.568 209.062 598.008 185.675 598.008 149.438V39.1855H631.932V72.8525H655.833V102.921H631.932V149.695C631.932 168.199 640.413 175.138 657.375 174.11Z" fill="white"/>
<path d="M593.05 160.489C585.34 190.558 561.182 208.291 529.057 208.291C489.222 208.291 460.695 177.451 460.695 139.158C460.695 100.865 489.222 69.5115 529.057 69.5115C560.925 69.5115 585.083 87.5015 592.793 117.313H556.556C551.93 108.318 541.393 100.608 529.057 100.608C510.296 100.608 495.133 118.084 495.133 139.415C495.133 160.232 510.296 177.451 529.057 177.451C541.65 177.451 552.444 169.741 556.813 160.489H593.05Z" fill="white"/>
<path d="M453.953 139.158V205.207H421.828V191.329C411.805 202.38 397.413 208.034 381.479 208.034C346.527 208.034 318 177.194 318 139.158C318 100.865 346.013 69.5115 386.105 69.5115C425.94 69.5115 453.953 100.865 453.953 139.158ZM420.029 139.415C420.029 118.341 404.866 101.379 386.105 101.379C367.344 101.379 352.181 117.57 352.181 139.415C352.181 160.489 367.344 176.68 386.105 176.68C404.866 176.68 420.029 159.975 420.029 139.415Z" fill="white"/>
</svg>
