<svg width="32" height="32" viewBox="0 0 32 32" fill="none" xmlns="http://www.w3.org/2000/svg">
<path d="M24.75 2.6665C24.75 2.25229 24.4142 1.9165 24 1.9165C23.5858 1.9165 23.25 2.25229 23.25 2.6665H24.75ZM23.25 5.33317C23.25 5.74738 23.5858 6.08317 24 6.08317C24.4142 6.08317 24.75 5.74738 24.75 5.33317H23.25ZM8.75 2.6665C8.75 2.25229 8.41421 1.9165 8 1.9165C7.58579 1.9165 7.25 2.25229 7.25 2.6665H8.75ZM7.25 5.33317C7.25 5.74738 7.58579 6.08317 8 6.08317C8.41421 6.08317 8.75 5.74738 8.75 5.33317H7.25ZM23.25 2.6665V5.33317H24.75V2.6665H23.25ZM7.25 2.6665V5.33317H8.75V2.6665H7.25Z" fill="#A3A3A3"/>
<path d="M3.33325 16.3243C3.33325 10.5146 3.33325 7.60971 5.00274 5.80486C6.67223 4 9.35924 4 14.7333 4H17.2666C22.6406 4 25.3276 4 26.9971 5.80486C28.6666 7.60971 28.6666 10.5146 28.6666 16.3243V17.009C28.6666 22.8188 28.6666 25.7236 26.9971 27.5285C25.3276 29.3333 22.6406 29.3333 17.2666 29.3333H14.7333C9.35924 29.3333 6.67223 29.3333 5.00274 27.5285C3.33325 25.7236 3.33325 22.8188 3.33325 17.009V16.3243Z" stroke="#A3A3A3" stroke-width="1.5" stroke-linecap="round" stroke-linejoin="round"/>
<path d="M4 10.6665H28" stroke="#A3A3A3" stroke-width="1.5" stroke-linecap="round" stroke-linejoin="round"/>
</svg>
