<svg width="20" height="20" viewBox="0 0 20 20" fill="none" xmlns="http://www.w3.org/2000/svg">
<path d="M18.3332 10.4166C18.3332 10.0071 18.3288 9.18086 18.32 8.77017C18.2656 6.21555 18.2383 4.93825 17.2957 3.99206C16.3531 3.04586 15.0412 3.0129 12.4175 2.94698C10.8004 2.90635 9.19926 2.90635 7.58219 2.94697C4.95845 3.01289 3.64657 3.04585 2.70396 3.99204C1.76136 4.93824 1.73412 6.21554 1.67964 8.77015C1.66212 9.59156 1.66212 10.4081 1.67964 11.2295C1.73412 13.7841 1.76136 15.0614 2.70397 16.0076C3.64657 16.9538 4.95845 16.9868 7.5822 17.0527C8.25116 17.0695 8.9174 17.0794 9.58317 17.0823" stroke="white" stroke-width="1.5" stroke-linecap="round" stroke-linejoin="round"/>
<path d="M1.6665 5L7.42736 8.27052C9.53205 9.46538 10.4676 9.46538 12.5723 8.27052L18.3332 5" stroke="white" stroke-width="1.5" stroke-linejoin="round"/>
<path d="M18.3332 14.5833L11.6665 14.5833M18.3332 14.5833C18.3332 13.9998 16.6713 12.9096 16.2498 12.5M18.3332 14.5833C18.3332 15.1669 16.6713 16.2571 16.2498 16.6667" stroke="white" stroke-width="1.5" stroke-linecap="round" stroke-linejoin="round"/>
</svg>
