<svg width="32" height="32" viewBox="0 0 32 32" fill="none" xmlns="http://www.w3.org/2000/svg">
<path d="M9.3335 29.333V16.3673C9.3335 14.9248 9.3335 14.2036 9.6596 13.5987C9.9857 12.9938 10.5847 12.6038 11.7828 11.8238L14.5581 10.0169C15.2584 9.56097 15.6086 9.33301 16.0002 9.33301C16.3918 9.33301 16.7419 9.56097 17.4422 10.0169L20.2175 11.8238C21.4156 12.6038 22.0146 12.9938 22.3407 13.5987C22.6668 14.2036 22.6668 14.9248 22.6668 16.3673V29.333" stroke="#A3A3A3" stroke-width="1.5" stroke-linecap="round" stroke-linejoin="round"/>
<path d="M16 17.333H16.012" stroke="#A3A3A3" stroke-width="2" stroke-linecap="round" stroke-linejoin="round"/>
<path d="M26.6667 29.3332V22.8829C26.6667 19.8274 25.4076 19.5801 22.6667 18.6665" stroke="#A3A3A3" stroke-width="1.5" stroke-linecap="round" stroke-linejoin="round"/>
<path d="M5.3335 29.3332V22.8829C5.3335 19.8274 6.59266 19.5801 9.3335 18.6665" stroke="#A3A3A3" stroke-width="1.5" stroke-linecap="round" stroke-linejoin="round"/>
<path d="M2.66675 29.333H29.3334" stroke="#A3A3A3" stroke-width="1.5" stroke-linecap="round" stroke-linejoin="round"/>
<path d="M16 9.33317V6.64278M16 6.64278V3.9603C16 3.32804 16 3.0119 16.1953 2.81548C16.8081 2.19903 19.3333 3.65721 20.2937 4.24855C21.1047 4.74791 21.3333 5.74536 21.3333 6.64278H16Z" stroke="#A3A3A3" stroke-width="1.5" stroke-linecap="round" stroke-linejoin="round"/>
<path d="M13.3335 29.3332L13.3335 25.3332C13.3335 24.0761 13.3335 23.4476 13.724 23.057C14.1145 22.6665 14.7431 22.6665 16.0002 22.6665C17.2572 22.6665 17.8858 22.6665 18.2763 23.057C18.6668 23.4476 18.6668 24.0761 18.6668 25.3332V29.3332" stroke="#A3A3A3" stroke-width="1.5" stroke-linecap="round" stroke-linejoin="round"/>
</svg>
