<svg width="32" height="32" viewBox="0 0 32 32" fill="none" xmlns="http://www.w3.org/2000/svg">
<path d="M6.6665 27.9999C12.2798 21.6648 18.5881 13.2633 27.9998 19.5645" stroke="#737373" stroke-width="1.5"/>
<path d="M22.6665 6.00008C23.3219 5.32582 25.0662 2.66675 25.9998 2.66675M29.3332 6.00008C28.6778 5.32582 26.9335 2.66675 25.9998 2.66675M25.9998 2.66675V13.3334" stroke="#737373" stroke-width="1.5" stroke-linecap="round" stroke-linejoin="round"/>
<path d="M27.9997 17.3333C27.9972 22.8626 27.9295 25.6937 26.1448 27.4783C24.2899 29.3333 21.3043 29.3333 15.3332 29.3333C9.36205 29.3333 6.37648 29.3333 4.52149 27.4783C2.6665 25.6234 2.6665 22.6378 2.6665 16.6667C2.6665 10.6955 2.6665 7.70998 4.52149 5.85499C6.37648 4 9.36205 4 15.3332 4C15.5597 4 18.6665 4.0001 18.6665 4.0001" stroke="#737373" stroke-width="1.5" stroke-linecap="round"/>
</svg>
